<svg width="340" height="288" viewBox="0 0 340 288" fill="none"
  xmlns="http://www.w3.org/2000/svg">
  <path opacity="0.5" d="M173.544 287.293C265.217 287.293 339.532 276.987 339.532 264.274C339.532 251.56 265.217 241.254 173.544 241.254C81.8708 241.254 7.55524 251.56 7.55524 264.274C7.55524 276.987 81.8708 287.293 173.544 287.293Z" fill="#F5F5F5"/>
  <path d="M143.678 222.942C143.71 220.578 143.616 217.302 143.052 213.455C142.577 210.214 141.059 199.862 135.6 192.038C127.35 180.215 117.998 185.486 108.411 173.262C102.925 166.266 104.468 162.6 98.1935 157C92.651 152.053 86.7012 150.231 80.3615 149.189C64.319 146.55 38.1462 149.025 38.1462 149.025C40.3557 174.393 48.8832 184.882 56.2422 189.776C66.5697 196.645 74.5137 192.437 83.7185 200.659C95.7012 211.361 87.8352 223.488 99.011 234.623C99.011 234.623 103.903 239.498 141.87 246.714L143.678 222.942Z" fill="#F2EBEB"/>
  <path d="M141.87 246.714C141.87 246.714 112.54 196.796 101.367 187.013C90.1947 177.23 38.1462 149.025 38.1462 149.025" fill="#F2EBEB"/>
  <path d="M141.87 246.714C141.87 246.714 112.54 196.796 101.367 187.013C90.1947 177.23 38.1462 149.025 38.1462 149.025" stroke="#D6CECE" stroke-width="0.349275" stroke-miterlimit="10" stroke-linecap="round" stroke-linejoin="round"/>
  <path d="M75.8105 170.313L43.0483 172.147" stroke="#D6CECE" stroke-width="0.349275" stroke-miterlimit="10" stroke-linecap="round" stroke-linejoin="round"/>
  <path d="M82.5785 174.368L84.7528 150.071" stroke="#D6CECE" stroke-width="0.349275" stroke-miterlimit="10" stroke-linecap="round" stroke-linejoin="round"/>
  <path d="M97.475 183.994L69.119 194.471" stroke="#D6CECE" stroke-width="0.349275" stroke-miterlimit="10" stroke-linecap="round" stroke-linejoin="round"/>
  <path d="M109.472 196.446L113.121 178.025" stroke="#D6CECE" stroke-width="0.349275" stroke-miterlimit="10" stroke-linecap="round" stroke-linejoin="round"/>
  <path d="M118.623 209.498L91.1533 214.515" stroke="#D6CECE" stroke-width="0.349275" stroke-miterlimit="10" stroke-linecap="round" stroke-linejoin="round"/>
  <path d="M125.788 220.5L136.126 192.819" stroke="#D6CECE" stroke-width="0.349275" stroke-miterlimit="10" stroke-linecap="round" stroke-linejoin="round"/>
  <path d="M132.309 230.902L100.536 235.586" stroke="#D6CECE" stroke-width="0.349275" stroke-miterlimit="10" stroke-linecap="round" stroke-linejoin="round"/>
  <path d="M126.239 226.851C125.365 224.654 124.026 221.662 122.034 218.323C120.357 215.509 114.997 206.524 106.962 201.381C94.8192 193.608 88.1922 202.054 74.6615 194.422C66.9177 190.054 66.9425 186.076 59.0037 183.299C51.9912 180.846 45.7962 181.437 39.5405 182.896C23.7072 186.589 0.467712 198.88 0.467712 198.88C12.2052 221.477 24.0942 227.911 32.765 229.621C44.9337 232.02 50.6667 225.097 62.315 229.176C77.4785 234.486 74.8445 248.698 89.4275 254.717C89.4275 254.717 95.8115 257.352 133.654 249.508L126.239 226.851Z" fill="#F2EBEB"/>
  <path d="M133.654 249.508C133.654 249.508 87.4715 214.59 73.4082 209.82C59.3442 205.049 0.467712 198.88 0.467712 198.88" stroke="#D6D6D6" stroke-width="0.349275" stroke-miterlimit="10" stroke-linecap="round" stroke-linejoin="round"/>
  <path d="M43.409 204.157L13.8342 218.373" stroke="#D6D6D6" stroke-width="0.349275" stroke-miterlimit="10" stroke-linecap="round" stroke-linejoin="round"/>
  <path d="M51.2127 205.317L43.9355 182.033" stroke="#D6D6D6" stroke-width="0.349275" stroke-miterlimit="10" stroke-linecap="round" stroke-linejoin="round"/>
  <path d="M68.6577 208.519L46.4585 229.038" stroke="#D6D6D6" stroke-width="0.349275" stroke-miterlimit="10" stroke-linecap="round" stroke-linejoin="round"/>
  <path d="M84.503 215.44L80.834 197.023" stroke="#D6D6D6" stroke-width="0.349275" stroke-miterlimit="10" stroke-linecap="round" stroke-linejoin="round"/>
  <path d="M97.9475 224.004L74.4807 239.139" stroke="#D6D6D6" stroke-width="0.349275" stroke-miterlimit="10" stroke-linecap="round" stroke-linejoin="round"/>
  <path d="M108.774 231.432L107.747 201.901" stroke="#D6D6D6" stroke-width="0.349275" stroke-miterlimit="10" stroke-linecap="round" stroke-linejoin="round"/>
  <path d="M118.775 238.552L91.2042 255.024" stroke="#D6D6D6" stroke-width="0.349275" stroke-miterlimit="10" stroke-linecap="round" stroke-linejoin="round"/>
  <path d="M233.099 249.889H133.096L142.727 183.761H223.468L233.099 249.889Z" fill="#5C3B74"/>
  <path d="M307.435 195.419H58.76C52.442 195.419 47.3202 190.297 47.3202 183.979V27.3179C47.3202 20.9999 52.442 15.8782 58.76 15.8782H307.435C313.753 15.8782 318.875 20.9999 318.875 27.3179V183.979C318.875 190.297 313.753 195.419 307.435 195.419Z" fill="#2B143C"/>
  <path d="M300.846 176.583H65.3495C59.0315 176.583 53.9097 171.461 53.9097 165.143V32.7232C53.9097 26.4052 59.0315 21.2834 65.3495 21.2834H300.847C307.165 21.2834 312.286 26.4052 312.286 32.7232V165.143C312.286 171.461 307.164 176.583 300.846 176.583Z" fill="#D1A8EE"/>
  <path d="M254.295 254.704H111.9V247.825C111.9 242.506 116.211 238.194 121.53 238.194H244.664C249.983 238.194 254.295 242.506 254.295 247.825V254.704Z" fill="#2B143C"/>
  <path d="M62.3337 176.583H299.085" stroke="#262626" stroke-width="0.75" stroke-miterlimit="10" stroke-linecap="round" stroke-linejoin="round"/>
  <path d="M118.168 251.264V247.653C118.168 245.468 119.939 243.698 122.124 243.698H228.92" stroke="#262626" stroke-width="0.75" stroke-miterlimit="10" stroke-linecap="round" stroke-linejoin="round"/>
  <path d="M217.569 200.704L221.352 229.596" stroke="#262626" stroke-width="0.75" stroke-miterlimit="10" stroke-linecap="round" stroke-linejoin="round"/>
  <path d="M180.709 192.126C183.769 192.126 186.249 189.646 186.249 186.586C186.249 183.526 183.769 181.046 180.709 181.046C177.649 181.046 175.169 183.526 175.169 186.586C175.169 189.646 177.649 192.126 180.709 192.126Z" fill="white"/>
  <path d="M259.531 31.8248H288.939C294.543 31.8248 299.085 36.3676 299.085 41.9716V103.075" stroke="white" stroke-width="0.75" stroke-miterlimit="10" stroke-linecap="round" stroke-linejoin="round"/>
  <path d="M281.973 51.1808C283.672 47.0948 285.351 43.9335 287.012 41.6993C288.672 39.465 290.833 37.683 293.499 36.354C295.056 35.5395 296.679 34.9553 298.371 34.602C300.06 34.2495 301.668 33.8003 303.195 33.2565C304.719 32.7135 306.122 31.9755 307.403 31.0455C308.683 30.1155 309.741 28.647 310.576 26.6378C311.986 23.2448 312.038 20.4825 310.729 18.3548C309.42 16.227 307.484 14.6295 304.922 13.5645C301.249 12.0383 298.296 12.0098 296.063 13.4768C293.827 14.9445 291.816 17.3378 290.031 20.6573L276.629 15.0863C278.04 11.6933 279.874 8.84026 282.135 6.53026C284.394 4.22101 286.949 2.52075 289.799 1.43025C292.647 0.341253 295.725 -0.126744 299.033 0.029256C302.337 0.184506 305.723 0.982507 309.187 2.42251C316.668 5.53201 321.938 9.51075 325.002 14.358C328.062 19.206 328.17 25.0575 325.319 31.9148C324.397 34.1325 323.365 35.9768 322.225 37.4528C321.083 38.9273 319.781 40.1528 318.32 41.13C316.857 42.1058 315.223 42.9098 313.419 43.5405C311.612 44.1712 309.62 44.7638 307.44 45.3195C305.425 45.864 303.743 46.4445 302.391 47.0588C301.038 47.6753 299.887 48.4365 298.944 49.3425C297.997 50.2493 297.203 51.2813 296.562 52.434C295.918 53.589 295.281 54.9293 294.648 56.4518L281.973 51.1808ZM273.222 71.061L278.88 57.45L292.906 63.2805L287.248 76.8915L273.222 71.061Z" fill="#7B1FBD"/>
  <path d="M200.244 71.6077V60.4927C200.244 56.847 197.289 53.8912 193.643 53.8912H129.122C125.476 53.8912 122.52 56.847 122.52 60.4927V71.6077V145.657C122.52 149.302 125.476 152.258 129.122 152.258H232.297C235.943 152.258 238.899 149.302 238.899 145.657V78.2092C238.899 74.5635 235.943 71.6077 232.297 71.6077H200.244Z" fill="#F2EBEB"/>
  <path d="M193.708 87.1328L180.709 100.132L167.711 87.1336L159.867 94.9771L172.865 107.976L159.867 120.975L167.711 128.819L180.709 115.82L193.708 128.819L201.552 120.975L188.553 107.976L201.552 94.9771L193.708 87.1328Z" fill="#D6CECE"/>
  <path d="M39.8667 254.062V245.504H24.1062V269.038L59.6922 269.609V265.33L39.8667 254.062Z" fill="#F7A99C"/>
  <path d="M60.9522 269.609V267.58C60.9522 265.506 59.8145 263.599 57.989 262.614L42.9807 254.514C38.4815 255.743 35.0045 255.571 32.6285 255.168C28.6827 254.498 24.9117 252.706 23.6427 254.205C23.2797 254.634 23.2362 255.196 23.2505 255.583V268.028C23.2505 268.901 23.9585 269.609 24.8315 269.609H60.9522Z" fill="#181818"/>
  <path d="M60.9522 268.254H23.2497" stroke="#7B1FBD" stroke-width="0.54975" stroke-miterlimit="10" stroke-linecap="round" stroke-linejoin="round"/>
  <path d="M52.6452 259.9L50.5332 262.692" stroke="#7B1FBD" stroke-width="0.54975" stroke-miterlimit="10" stroke-linecap="round" stroke-linejoin="round"/>
  <path d="M51.098 259.027L48.986 261.818" stroke="#7B1FBD" stroke-width="0.54975" stroke-miterlimit="10" stroke-linecap="round" stroke-linejoin="round"/>
  <path d="M49.4817 258.217L47.369 261.008" stroke="#7B1FBD" stroke-width="0.54975" stroke-miterlimit="10" stroke-linecap="round" stroke-linejoin="round"/>
  <path d="M47.1012 256.738C44.5437 257.713 40.3227 258.964 34.994 258.936C29.8527 258.908 25.772 257.7 23.2505 256.738" stroke="#7B1FBD" stroke-width="0.54975" stroke-miterlimit="10" stroke-linecap="round" stroke-linejoin="round"/>
  <path d="M84.7955 254.062V245.504H69.035V269.038L104.621 269.609V265.33L84.7955 254.062Z" fill="#F7A99C"/>
  <path d="M105.881 269.609V267.58C105.881 265.506 104.743 263.599 102.918 262.614L87.9095 254.514C83.4102 255.743 79.9332 255.571 77.5572 255.168C73.6115 254.498 69.8405 252.706 68.5715 254.205C68.2085 254.634 68.165 255.196 68.1792 255.583V268.028C68.1792 268.901 68.8872 269.609 69.7602 269.609H105.881Z" fill="#181818"/>
  <path d="M105.881 268.254H68.1792" stroke="#7B1FBD" stroke-width="0.54975" stroke-miterlimit="10" stroke-linecap="round" stroke-linejoin="round"/>
  <path d="M97.574 259.9L95.462 262.692" stroke="#7B1FBD" stroke-width="0.54975" stroke-miterlimit="10" stroke-linecap="round" stroke-linejoin="round"/>
  <path d="M96.0267 259.027L93.9147 261.818" stroke="#7B1FBD" stroke-width="0.54975" stroke-miterlimit="10" stroke-linecap="round" stroke-linejoin="round"/>
  <path d="M94.4105 258.217L92.2985 261.008" stroke="#7B1FBD" stroke-width="0.54975" stroke-miterlimit="10" stroke-linecap="round" stroke-linejoin="round"/>
  <path d="M92.03 256.738C89.4725 257.713 85.2515 258.964 79.9227 258.936C74.7822 258.908 70.7007 257.7 68.1792 256.738" stroke="#7B1FBD" stroke-width="0.54975" stroke-miterlimit="10" stroke-linecap="round" stroke-linejoin="round"/>
  <path d="M75.7385 132.184C75.7385 132.184 88.718 173.404 90.7145 179.11C92.711 184.815 94.5657 192.802 94.1375 199.791C93.7092 206.78 87.0057 249.854 87.0057 249.854H67.4652C67.4652 249.854 66.0852 204.355 65.42 200.789C64.7547 197.224 59.0495 177.054 59.0495 177.054C59.0495 177.054 57.1955 200.647 55.6265 206.922C54.0575 213.198 41.5062 250.567 41.5062 250.567H23.2497L30.9522 132.184H75.7385Z" fill="#7B1FBD"/>
  <path d="M105.528 107.056C105.528 107.056 111.725 101.798 113.293 98.3586C114.636 95.4149 116.512 90.2429 117.025 88.8134C117.102 88.5974 117.329 88.4781 117.552 88.5306L117.923 88.6184C119.073 88.8906 119.783 90.0456 119.507 91.1946L118.888 93.7731L125.436 89.4726C125.998 89.1036 126.755 89.2851 127.088 89.8694C127.382 90.3846 127.242 91.0386 126.762 91.3874L122.443 94.5374L129.618 91.1684C130.174 90.9074 130.836 91.1174 131.141 91.6506L131.15 91.6664C131.472 92.2311 131.275 92.9496 130.71 93.2714L130.791 93.2481C131.414 93.0689 132.075 93.3711 132.346 93.9591C132.661 94.6401 132.342 95.4456 131.646 95.7269L131.19 95.9114C131.785 95.7254 132.411 96.0966 132.532 96.7086C132.71 97.6019 132.279 98.5041 131.472 98.9249C129.54 99.9299 128.287 100.195 126.452 101.569C124.999 102.655 125.508 103.348 123.958 105.33C122.071 107.744 120.464 107.812 117.213 110.202C115.979 111.109 114.274 112.524 112.473 114.629L105.528 107.056Z" fill="#F7A99C"/>
  <path d="M127.192 90.1282C127.192 90.1282 127.521 90.7957 126.896 91.2712C126.271 91.7467 121.392 95.3587 121.392 95.3587" stroke="#262626" stroke-width="0.311025" stroke-miterlimit="10" stroke-linecap="round" stroke-linejoin="round"/>
  <path d="M130.71 93.2714L123.992 96.3899" stroke="#262626" stroke-width="0.311025" stroke-miterlimit="10" stroke-linecap="round" stroke-linejoin="round"/>
  <path d="M131.402 95.8708L124.647 98.9796" stroke="#262626" stroke-width="0.311025" stroke-miterlimit="10" stroke-linecap="round" stroke-linejoin="round"/>
  <path d="M118.392 88.7925C118.392 88.7925 119.573 89.5395 119.54 90.3675C119.507 91.1955 118.316 96.5145 118.316 96.5145" stroke="#262626" stroke-width="0.311025" stroke-miterlimit="10" stroke-linecap="round" stroke-linejoin="round"/>
  <path d="M67.466 249.855C67.466 249.855 65.6975 203.202 65.5595 201.996C65.4215 200.79 58.7727 176.097 58.7727 176.097L59.9502 165.183C59.9502 165.183 73.364 198.202 73.364 200.38C73.364 202.559 74.8542 249.855 74.8542 249.855H67.466Z" fill="#6A219E"/>
  <path d="M56.3885 204.067L61.1555 152.51" stroke="#262626" stroke-width="0.311025" stroke-miterlimit="10" stroke-linecap="round" stroke-linejoin="round"/>
  <path d="M87.7572 245.896H67.3152L67.466 249.855H87.0065L87.7572 245.896Z" fill="#262626"/>
  <path d="M42.6912 247.032H23.48L23.2497 250.568H41.507L42.6912 247.032Z" fill="#262626"/>
  <path d="M88.9467 183.186C91.5335 191.329 91.9437 200.152 90.1227 208.499" stroke="white" stroke-width="0.311025" stroke-miterlimit="10" stroke-linecap="round" stroke-linejoin="round"/>
  <path d="M110.679 101.512C110.679 101.512 107.37 104.059 103.601 104.721C99.1842 105.496 95.354 102.88 94.3257 102.178C91.5252 100.266 90.491 98.0002 88.6392 95.3489C83.1537 87.4964 79.7465 82.6184 74.9765 79.8562C72.5112 78.4282 68.3885 76.8164 61.889 77.3152C60.431 76.7924 58.1067 77.2064 56.5497 77.2064C55.2552 77.2064 53.9615 77.2064 52.667 77.2064C50.1155 77.5124 31.3235 79.6957 28.1285 76.7617C26.8692 75.6052 26.849 74.466 26.849 74.466C26.8325 73.524 27.4272 72.5437 28.9842 71.358C32.789 68.4607 39.7685 66.2977 42.1062 65.6085L40.6797 54.9554C40.6797 54.9554 40.6797 54.9554 37.5417 54.9554C34.4037 54.9554 23.2782 56.8094 17.288 58.9027C8.88872 61.8374 4.38872 63.9795 2.16872 68.8447C-0.612277 74.9415 2.35022 81.4942 3.11972 83.1967C6.97622 91.7264 15.5277 95.1787 20.693 97.2637C25.2485 99.1027 29.303 99.8415 32.1215 100.17L29.6967 138.966L74.2887 141.391H80.9855C81.4985 135.463 78.9335 117.044 79.2657 111.028C84.959 118.951 94.3895 122.952 103.342 121.231C113.253 119.327 118.238 111.245 119.049 109.881C115.59 103.057 110.679 101.512 110.679 101.512Z" fill="#7B1FBD"/>
  <path d="M55.2762 98.7015H54.8465V80.1855H57.6552V96.3226C57.6552 97.6366 56.5902 98.7015 55.2762 98.7015Z" fill="white"/>
  <path d="M81.0537 139.345C79.5177 139.63 58.4105 143.169 43.496 127.421C30.911 114.133 32.399 97.3177 32.6615 94.8307C31.8785 106.495 31.0947 118.159 30.3117 129.823H30.269L29.6975 138.965L36.6875 139.345L36.683 139.296C47.108 140.121 57.8667 140.737 68.9435 141.1C73.001 141.232 77.0157 141.328 80.987 141.391C81.0087 140.708 81.0312 140.026 81.0537 139.345Z" fill="#6A219E"/>
  <path d="M69.2292 63.1906C69.9935 59.2681 69.8743 56.2021 69.6523 54.2423C69.4835 52.7513 69.224 51.6226 68.432 50.5493C68.2648 50.3228 66.9493 48.5933 64.6918 48.1418C61.9918 47.6011 61.31 49.5623 57.4692 50.0378C54.1572 50.4473 53.5048 49.1326 51.2773 50.0768C48.8443 51.1081 47.6435 53.5163 47.279 54.2476C47.12 54.5671 46.3273 56.2006 46.247 58.4896C46.1833 60.3023 46.5972 61.6658 46.7615 62.2238C47.4515 64.5721 48.2638 68.1436 49.2568 73.8533C49.775 73.8338 50.294 73.8151 50.8122 73.7956C56.9517 70.2593 63.0905 66.7246 69.2292 63.1906Z" fill="#262626"/>
  <path d="M56.0975 82.482C53.1965 82.4932 50.8363 80.1502 50.8258 77.25L50.783 65.9475L61.2875 65.9077L61.3303 77.2102C61.3408 80.1105 58.9985 82.4707 56.0975 82.482Z" fill="#F7A99C"/>
  <path d="M61.3175 74.046L54.4767 70.5315C54.5457 71.124 54.935 73.8982 57.3747 75.8145C58.9325 77.0377 60.5705 77.3175 61.3265 77.397L61.3175 74.046Z" fill="#FF7769"/>
  <path d="M50.528 62.4458C50.495 62.2748 50.045 62.0168 49.907 61.929C49.6737 61.7798 49.421 61.6605 49.157 61.5758C48.6447 61.4108 48.0815 61.3725 47.555 61.4933C46.508 61.7333 45.5795 62.613 45.4047 63.6908C45.3035 64.317 45.4482 64.9643 45.716 65.5388C46.1195 66.4028 46.8035 67.1288 47.63 67.6043C48.3147 67.9988 49.094 68.2223 49.8815 68.2688C50.039 68.2778 51.6537 68.241 51.6417 68.1788C51.2697 66.2678 50.8985 64.3568 50.528 62.4458Z" fill="#F7A99C"/>
  <path d="M49.088 62.5553C49.2125 63.3983 49.9535 67.8466 53.963 70.9891C54.7018 71.5681 59.6113 75.4163 64.1038 73.5383C69.8765 71.1248 69.2465 61.6433 69.206 61.1296C69.0688 59.3933 68.663 54.2806 64.4293 51.5528C60.974 49.3268 57.2293 50.1451 56.6983 50.2703C56.1388 50.4016 52.574 51.3016 50.3923 54.7966C48.4115 57.9683 48.8848 61.1753 49.088 62.5553Z" fill="#F7A99C"/>
  <path d="M65.9292 61.1362C66.0222 61.8764 66.593 62.4141 67.2042 62.3376C67.8155 62.2611 68.2355 61.5989 68.1425 60.8586C68.0495 60.1184 67.4787 59.5807 66.8675 59.6572C66.2562 59.7337 65.8362 60.3959 65.9292 61.1362Z" fill="#262626"/>
  <path d="M59.2587 61.974C59.3517 62.7143 59.9225 63.252 60.5337 63.1755C61.145 63.099 61.565 62.4368 61.472 61.6965C61.379 60.9563 60.8082 60.4185 60.197 60.495C59.5865 60.5715 59.1657 61.2338 59.2587 61.974Z" fill="#262626"/>
  <path d="M63.9155 62.2439L64.9377 63.6254C65.126 63.8789 65.0555 64.2397 64.7855 64.4039L63.8465 64.9754" stroke="#262626" stroke-width="0.54975" stroke-miterlimit="10" stroke-linecap="round" stroke-linejoin="round"/>
  <path d="M57.0215 65.4607C57.1258 66.291 57.884 66.8805 58.7143 66.7755C59.5445 66.6712 60.134 65.913 60.029 65.0827C59.9248 64.2525 59.1665 63.663 58.3363 63.768C57.506 63.8722 56.9173 64.6305 57.0215 65.4607Z" fill="#FF7769"/>
  <path d="M49.823 66.2438C49.8282 66.0773 49.8417 64.9493 48.9372 64.1355C48.2285 63.498 47.4035 63.456 47.1785 63.4523" stroke="#262626" stroke-width="0.54975" stroke-miterlimit="10" stroke-linecap="round" stroke-linejoin="round"/>
  <path d="M49.025 64.3589C48.9748 64.3506 48.368 64.2666 47.9443 64.7256C47.5955 65.1029 47.6278 65.5694 47.6345 65.6466" stroke="#262626" stroke-width="0.54975" stroke-miterlimit="10" stroke-linecap="round" stroke-linejoin="round"/>
  <path d="M48.9552 61.5195C48.9552 61.5195 49.7015 61.5855 50.264 62.1443C50.8265 62.7023 51.026 63.6585 51.026 63.6585C52.4637 63.4837 55.757 62.877 58.7442 60.2843C60.3635 58.8788 61.352 57.3592 61.9347 56.2635C62.4792 56.7532 63.4085 57.489 64.7232 58.056C66.4385 58.7955 68.5812 59.1495 68.8655 58.5735C68.918 58.467 68.8602 58.158 68.7432 57.5408C68.7012 57.3173 68.657 56.9865 68.5482 56.67C68.336 56.0505 68.06 55.4527 67.7307 54.8865C67.0707 53.754 66.1925 52.7483 65.159 51.942C64.487 51.4185 63.7497 50.979 62.9652 50.6452C60.4752 49.5863 57.0177 49.5855 54.0417 51.1725C54.0417 51.1725 50.7192 52.9448 49.2545 56.4128C48.7512 57.6045 48.6245 58.7963 48.593 59.2095C48.53 60.0278 48.6222 60.5625 48.7467 60.9735C48.8172 61.206 48.896 61.3927 48.9552 61.5195Z" fill="#262626"/>
  <path d="M68.4193 63.0638C68.7065 63.0278 68.9833 63.0788 69.2293 63.1905C69.2 64.0043 69.122 64.9913 68.9428 66.0383C68.894 66.0495 68.8475 66.0653 68.7973 66.072C67.967 66.1763 67.2088 65.5875 67.1045 64.7573C67.0003 63.927 67.5883 63.168 68.4193 63.0638Z" fill="#FF7769"/>
  <path d="M57.2967 50.4629C56.8032 50.2709 56.0802 50.0092 55.19 49.7534C53.2385 49.1939 52.2627 48.9142 51.3747 49.0282C48.7752 49.3619 47.282 52.7879 46.6557 54.2249C46.1817 55.3124 45.4062 57.1582 45.8172 59.4704C46.0002 60.4994 46.3625 61.3042 46.6505 61.8359" stroke="#262626" stroke-width="0.1875" stroke-miterlimit="10" stroke-linecap="round" stroke-linejoin="round"/>
  <path d="M57.2968 50.1539C58.1758 49.7699 59.1155 49.4587 59.9622 49.0184C60.851 48.5564 61.6273 47.9557 62.579 47.6009C63.5788 47.2282 64.6948 47.0789 65.7155 47.3887C66.5953 47.6557 67.3475 48.2437 67.9685 48.9217C68.8048 49.8352 69.4415 50.9377 69.773 52.1309C70.412 54.4304 69.8413 56.8267 69.4648 59.1187" stroke="#262626" stroke-width="0.1875" stroke-miterlimit="10" stroke-linecap="round" stroke-linejoin="round"/>
  <path d="M65.0435 68.1396C65.0435 68.8866 64.316 69.4919 63.419 69.4919C62.5213 69.4919 61.7938 68.8866 61.7938 68.1396C61.7938 67.3926 62.5213 66.7874 63.419 66.7874C64.316 66.7881 65.0435 67.3934 65.0435 68.1396Z" fill="white"/>
  <path d="M40.925 56.7831L43.9257 54.9554C43.9257 54.9554 44.5385 52.3116 45.3717 51.7529C46.205 51.1941 50.633 49.4744 50.633 49.4744L51.278 50.0766C51.278 50.0766 47.813 53.2416 47.0952 54.6471C46.3767 56.0526 46.2417 59.9654 46.2417 59.9654L42.8517 64.3484L42.0222 64.9761L40.925 56.7831Z" fill="#F7A99C"/>
  <path d="M32.6615 96.5145L31.0835 116.789" stroke="#262626" stroke-width="0.311025" stroke-miterlimit="10" stroke-linecap="round" stroke-linejoin="round"/>
  <path d="M78.4925 98.172L79.7022 120.542" stroke="#262626" stroke-width="0.311025" stroke-miterlimit="10" stroke-linecap="round" stroke-linejoin="round"/>
  <path d="M9.21572 66.2437C8.58872 66.7424 5.34572 69.4251 4.82072 74.1644C4.24922 79.3274 7.35422 82.8614 7.83947 83.3954" stroke="white" stroke-width="0.311025" stroke-miterlimit="10" stroke-linecap="round" stroke-linejoin="round"/>
  <path d="M86.2602 112.517C87.0942 113.443 90.3372 116.824 95.7867 117.56C100.955 118.259 104.811 116.135 105.922 115.469" stroke="white" stroke-width="0.311025" stroke-miterlimit="10" stroke-linecap="round" stroke-linejoin="round"/>
  <path d="M227.953 130.28L234.909 126.561L245.228 128.453L250.387 122.949L262.597 126.217L269.391 116.93L281.521 124.366L277.394 98.1435L261.387 86.9363L224.598 92.7263C223.221 92.943 222.28 94.2353 222.497 95.613L227.953 130.28Z" fill="#F2EBEB"/>
  <path d="M265.126 100.074L277.394 98.1435L261.387 86.9363L263.239 98.7C263.38 99.6008 264.225 100.216 265.126 100.074Z" fill="#D6CECE"/>
  <path d="M261.387 86.9355L263.239 98.6993C263.381 99.6001 264.226 100.215 265.127 100.073L277.395 98.1428" stroke="#262626" stroke-width="0.2055" stroke-miterlimit="10" stroke-linecap="round" stroke-linejoin="round"/>
  <path d="M232.912 164.71C233.129 166.088 234.421 167.028 235.799 166.811L283.992 159.227C285.369 159.01 286.31 157.718 286.093 156.34L281.521 127.289L269.391 119.854L262.597 129.14L250.387 125.873L245.228 131.376L234.909 129.485L227.953 133.203L232.912 164.71Z" fill="#F2EBEB"/>
  <path d="M227.963 130.28L234.919 126.561L245.238 128.453L250.397 122.949L262.607 126.217L269.4 116.93L281.531 124.366L277.404 98.1435L261.397 86.9363L224.608 92.7263C223.23 92.943 222.29 94.2353 222.507 95.613L227.963 130.28Z" stroke="#262626" stroke-width="0.2055" stroke-miterlimit="10" stroke-linecap="round" stroke-linejoin="round"/>
  <path d="M232.922 164.71C233.139 166.088 234.431 167.028 235.809 166.811L284.001 159.227C285.379 159.01 286.32 157.718 286.103 156.34L281.531 127.289L269.4 119.854L262.607 129.14L250.397 125.873L245.238 131.376L234.919 129.485L227.963 133.203L232.922 164.71Z" stroke="#262626" stroke-width="0.2055" stroke-miterlimit="10" stroke-linecap="round" stroke-linejoin="round"/>
  <path d="M41.5197 48.7185L40.3032 49.8795L29.5422 40.1632L32.6397 37.209L41.5197 48.7185Z" fill="#F2EBEB"/>
  <path d="M44.1785 46.7265L42.5247 47.0325L38.834 33.012L43.043 32.2343L44.1785 46.7265Z" fill="#F2EBEB"/>
  <path d="M38.444 51.3631L38.306 53.0393L23.8077 52.9298L24.1595 48.6638L38.444 51.3631Z" fill="#F2EBEB"/>
  <path d="M211.656 263.94C208.018 260.365 207.967 254.518 211.542 250.881L254.062 207.615L267.235 220.562L224.715 263.826C221.14 267.465 215.293 267.516 211.656 263.94Z" fill="#1E1E1E"/>
  <path opacity="0.2" d="M287.524 224.172C308.148 224.125 324.828 207.368 324.781 186.744C324.734 166.12 307.976 149.44 287.353 149.487C266.729 149.535 250.049 166.292 250.096 186.916C250.143 207.539 266.901 224.22 287.524 224.172Z" fill="#DCF0FF"/>
  <path opacity="0.5" d="M252.483 200C253.743 203.35 255.498 206.554 257.751 209.498L324.764 186.319C324.714 182.696 324.137 179.081 323.04 175.595L252.483 200Z" fill="white"/>
  <path opacity="0.5" d="M250.176 189.307C250.315 191.426 250.635 193.533 251.135 195.607L321.39 171.307C320.514 169.391 319.47 167.535 318.254 165.76L250.176 189.307Z" fill="white"/>
  <path d="M317.637 156.102C300.662 139.418 273.375 139.655 256.692 156.631C240.008 173.607 240.245 200.893 257.221 217.577C274.197 234.261 301.483 234.024 318.167 217.048C334.851 200.071 334.614 172.785 317.637 156.102ZM262.552 212.152C248.572 198.413 248.377 175.942 262.116 161.962C275.856 147.982 298.326 147.787 312.306 161.526C326.286 175.265 326.481 197.736 312.742 211.717C299.004 225.697 276.532 225.892 262.552 212.152Z" fill="#1E1E1E"/>
  <path d="M257.047 224.542L223.426 258.752" stroke="white" stroke-width="0.75" stroke-miterlimit="10" stroke-linecap="round" stroke-linejoin="round"/>
  <path d="M290.52 146.839C279.927 145.771 268.944 149.427 261.105 156.631C253.266 163.837 248.7 174.472 248.874 185.118" stroke="white" stroke-width="0.75" stroke-miterlimit="10" stroke-linecap="round" stroke-linejoin="round"/>
</svg>
